<?xml version="1.0" standalone="no"?>
<!DOCTYPE svg PUBLIC "-//W3C//DTD SVG 20010904//EN"
 "http://www.w3.org/TR/2001/REC-SVG-20010904/DTD/svg10.dtd">
<svg version="1.0" xmlns="http://www.w3.org/2000/svg"
 width="500.000000pt" height="500.000000pt" viewBox="0 0 500.000000 500.000000"
 preserveAspectRatio="xMidYMid meet">
<metadata>
Created by potrace 1.14, written by Peter Selinger 2001-2017
</metadata>
<g transform="translate(0.000000,500.000000) scale(0.100000,-0.100000)"
fill="#000000" stroke="none">
<path d="M2960 4821 c-17 -16 -30 -35 -31 -43 0 -7 -2 -20 -4 -28 -13 -51 -15
-83 -5 -95 23 -28 -11 -26 -88 5 -43 17 -89 32 -103 34 -14 1 -29 5 -35 8 -5
4 -28 9 -49 12 -22 3 -51 7 -65 10 -113 21 -377 30 -397 14 -7 -6 -13 -7 -13
-4 0 4 -9 2 -21 -4 -24 -14 -43 -18 -129 -31 -71 -11 -198 -47 -217 -62 -7 -5
-13 -6 -13 -1 0 5 -4 4 -8 -2 -7 -10 -74 -44 -86 -44 -4 0 -18 -7 -31 -16 -19
-12 -60 -16 -197 -19 -99 -2 -205 -9 -248 -18 -41 -8 -82 -15 -90 -15 -51 -3
-94 -13 -101 -24 -12 -18 -4 -53 19 -86 54 -78 103 -182 104 -224 2 -84 -1
-93 -47 -140 -25 -26 -45 -51 -45 -57 0 -6 -4 -11 -10 -11 -5 0 -10 -5 -10
-11 0 -6 -7 -17 -15 -25 -8 -9 -15 -24 -15 -35 0 -10 -4 -19 -9 -19 -5 0 -11
-8 -15 -17 -3 -10 -10 -28 -16 -41 -6 -15 -6 -21 0 -17 6 3 10 11 10 16 0 15
122 128 138 129 15 0 16 -12 0 -28 -7 -7 -9 -12 -5 -12 4 0 0 -14 -9 -31 -23
-45 -106 -159 -116 -159 -4 0 -8 -6 -8 -14 0 -8 -3 -16 -7 -18 -5 -1 -41 -39
-80 -84 -40 -45 -88 -92 -108 -105 -19 -13 -35 -31 -35 -40 0 -18 56 -49 88
-49 11 0 26 -8 33 -17 7 -10 9 -15 4 -10 -11 9 -41 -70 -50 -138 -2 -11 -4
-20 -5 -20 -4 0 -18 -87 -24 -157 -6 -57 -26 -128 -38 -128 -4 0 -8 -6 -9 -12
0 -14 -27 -54 -78 -120 -33 -41 -32 -40 21 12 31 30 54 58 51 64 -3 5 -1 6 6
2 6 -4 18 -3 25 3 23 19 14 -69 -12 -112 -12 -21 -22 -41 -22 -44 0 -3 -16
-25 -35 -49 -19 -23 -35 -45 -35 -49 0 -8 64 36 68 47 2 4 10 8 17 8 7 0 15 5
17 11 5 14 58 21 58 7 0 -6 -7 -8 -15 -5 -11 5 -11 -2 4 -36 10 -23 25 -57 32
-74 10 -22 18 -30 27 -25 9 7 8 14 -8 32 -11 13 -20 28 -21 34 -9 128 -8 144
6 150 13 4 15 -7 15 -71 0 -42 2 -74 5 -71 5 5 16 98 19 155 0 17 4 29 8 26 5
-2 8 3 8 12 0 16 50 98 56 92 7 -7 11 -97 5 -97 -3 0 -6 -15 -5 -32 0 -18 -3
-41 -8 -50 -5 -10 -4 -19 2 -23 7 -4 7 -11 2 -18 -5 -7 -8 -32 -7 -57 1 -25
-3 -48 -9 -52 -8 -5 -7 -8 1 -8 7 0 10 -7 6 -17 -4 -11 -3 -14 5 -9 7 4 12 2
12 -3 0 -6 -6 -11 -12 -11 -10 0 -10 -2 -1 -8 7 -4 14 -23 17 -42 7 -52 17
-103 23 -120 3 -8 7 -22 9 -30 2 -9 11 -34 20 -55 10 -22 18 -42 18 -45 3 -19
73 -150 84 -154 8 -4 7 6 -4 32 -9 20 -22 54 -28 74 -6 20 -14 40 -18 44 -4 3
-3 15 2 25 7 12 7 20 0 24 -6 4 -7 11 -4 17 4 5 8 29 10 51 5 55 34 176 44
182 4 2 16 -12 26 -33 10 -20 22 -38 27 -40 4 -2 7 -10 7 -17 0 -8 6 -20 13
-27 33 -34 39 -80 23 -161 -13 -63 -17 -88 -21 -122 -2 -22 -4 -40 -5 -40 0 0
-3 -22 -5 -50 -12 -135 -9 -128 -70 -186 -69 -64 -84 -96 -78 -160 3 -33 -2
-69 -16 -111 -53 -163 -76 -331 -56 -418 17 -75 59 -144 137 -222 43 -43 80
-89 82 -101 15 -74 21 -93 30 -103 23 -22 56 -34 98 -35 24 -1 48 -5 53 -10 6
-4 24 -9 40 -11 17 -3 47 -12 69 -21 21 -9 44 -17 50 -17 6 0 26 -14 44 -30
18 -17 39 -30 47 -30 7 0 15 -4 17 -8 7 -16 285 -137 342 -148 10 -2 24 -8 32
-15 8 -6 14 -8 14 -4 0 4 7 2 15 -5 8 -7 15 -10 15 -7 0 3 15 0 34 -8 18 -8
36 -11 40 -8 3 4 6 2 6 -4 0 -6 12 -13 28 -16 34 -7 66 -15 70 -17 1 -2 5 -3
10 -4 4 -2 32 -10 62 -19 30 -9 57 -17 60 -16 3 0 23 -6 45 -15 38 -15 106
-33 150 -41 11 -2 21 -4 23 -5 1 -2 10 -3 20 -5 48 -5 81 -22 120 -64 24 -25
53 -46 64 -48 12 -2 26 -10 32 -18 6 -8 23 -18 37 -24 22 -8 28 -6 35 10 8 18
11 18 39 3 16 -8 48 -17 72 -19 23 -3 46 -6 51 -7 5 -2 22 11 38 27 15 17 29
29 31 28 12 -10 23 1 23 21 0 30 20 35 180 51 41 4 89 8 105 10 76 9 134 15
183 19 47 3 52 2 47 -15 -5 -14 -1 -19 12 -19 23 0 137 113 126 125 -5 4 -3 5
4 1 7 -4 23 8 39 29 14 19 34 35 43 35 9 0 25 7 35 15 15 11 23 12 33 3 10 -8
16 -9 21 -1 4 6 22 13 40 16 30 5 32 4 20 -11 -7 -9 -15 -19 -18 -22 -15 -14
-88 -109 -103 -132 -31 -50 -18 -41 56 38 39 43 94 99 120 125 27 27 46 52 43
57 -3 6 2 16 11 23 12 10 14 10 9 2 -16 -28 12 -10 56 36 27 27 48 46 48 43 0
-3 21 16 46 43 42 46 45 53 41 92 -3 25 -15 57 -31 77 -14 19 -26 38 -26 42 0
4 -6 15 -14 23 -16 18 -68 118 -74 141 -2 8 -5 43 -7 76 -4 87 -13 124 -41
166 -13 21 -24 42 -24 47 0 5 -5 11 -12 13 -11 4 -13 45 -4 93 5 33 -20 125
-45 159 -12 17 -38 45 -57 61 -20 17 -58 54 -86 84 -127 133 -146 150 -185
157 -21 5 -33 15 -41 38 -43 115 -51 122 -168 161 -56 18 -68 33 -79 102 -6
32 0 51 42 148 13 28 25 57 28 65 13 39 29 -54 30 -177 1 -72 4 -129 7 -126 3
2 5 8 6 11 6 52 18 102 26 102 5 0 7 4 4 8 -3 5 2 33 10 63 18 63 22 81 23 92
2 17 21 5 21 -13 0 -11 4 -20 10 -20 6 0 6 9 1 23 -11 30 -6 186 7 199 6 6 20
4 41 -6 17 -9 31 -14 31 -11 0 3 6 0 13 -6 7 -7 13 -22 13 -33 1 -29 13 -157
18 -181 3 -11 5 -26 5 -32 1 -7 5 -13 9 -13 4 0 7 35 7 78 -2 96 4 127 18 113
16 -16 27 -13 21 4 -9 22 4 19 42 -10 18 -14 37 -25 42 -25 5 0 21 -9 36 -21
30 -24 36 -11 7 16 -28 24 -88 128 -102 174 -10 33 -8 47 14 112 14 41 28 96
31 123 3 27 8 51 10 53 4 4 45 -16 56 -27 3 -3 25 -16 50 -29 39 -22 43 -22
30 -5 -8 10 -17 21 -20 24 -3 3 -25 29 -48 57 -41 50 -44 57 -46 121 -1 37 -5
73 -9 79 -11 18 22 30 78 31 111 0 127 2 123 14 -2 6 -14 13 -27 15 -37 5 -77
30 -127 81 -42 40 -52 58 -67 117 -20 81 -21 95 -7 95 6 0 25 16 42 36 33 37
83 68 97 60 4 -3 16 1 26 8 17 12 15 14 -25 21 -24 4 -65 23 -92 41 -26 19
-53 34 -59 34 -10 0 -70 52 -121 105 -23 24 -97 136 -98 148 0 11 53 -21 97
-59 19 -17 55 -41 79 -55 52 -28 63 -21 71 41 5 39 -14 92 -49 135 -5 6 -27
39 -49 75 -23 36 -44 67 -48 70 -3 3 -11 14 -18 25 -7 11 -28 46 -47 77 -19
31 -31 59 -28 63 4 4 7 10 8 13 4 28 41 105 102 214 41 72 39 73 -88 82 -36 3
-90 8 -120 12 -65 8 -264 9 -300 1 -14 -3 -56 -12 -93 -21 -74 -17 -87 -15
-87 14 0 10 -4 22 -10 25 -5 3 -10 19 -10 35 0 16 -4 32 -10 35 -5 3 -10 12
-10 20 0 25 -44 113 -62 124 -16 10 -24 7 -48 -18z m-2046 -1385 c-3 -9 -10
-16 -15 -16 -5 0 -4 9 3 20 14 22 21 20 12 -4z m-4 -30 c0 -3 -4 -8 -10 -11
-5 -3 -10 -1 -10 4 0 6 5 11 10 11 6 0 10 -2 10 -4z m15 -24 c-5 -4 -11 -20
-13 -37 -1 -16 -6 -37 -9 -45 -3 -8 -7 -17 -8 -20 -7 -29 -18 -50 -24 -50 -10
0 -5 49 8 83 6 15 15 38 21 52 5 14 15 25 22 25 8 0 9 -3 3 -8z m2882 -411
c13 -11 24 -27 26 -38 1 -10 6 -24 11 -31 10 -17 15 -182 6 -207 -7 -18 -9
-17 -21 10 -16 38 -14 33 -24 80 -4 22 -11 47 -15 55 -7 13 -20 84 -23 118 0
6 -4 12 -9 12 -5 0 -6 5 -3 10 9 15 27 12 52 -9z m-2559 -247 c1 -15 6 -32 12
-39 5 -6 7 -15 3 -18 -3 -4 -1 -13 5 -20 7 -8 10 -16 8 -18 -2 -2 -7 -33 -11
-69 -10 -90 -20 -105 -35 -50 -6 25 -14 52 -17 60 -3 8 -5 19 -4 24 1 4 -4 14
-10 22 -8 10 -8 14 0 14 7 0 8 8 1 25 -7 19 -5 34 7 60 20 42 38 45 41 9z m23
-503 c5 -22 4 -42 -3 -55 -11 -19 -13 -17 -24 26 -6 25 -9 59 -6 73 4 24 6 25
15 10 5 -10 13 -34 18 -54z m1960 -5 c-17 -58 -44 -76 -77 -52 -14 11 -10 19
33 63 26 28 51 49 54 47 4 -2 -1 -28 -10 -58z m107 -30 c34 -46 30 -63 -11
-50 -12 4 -31 7 -42 8 -33 2 -16 71 21 86 0 0 15 -20 32 -44z m-2094 -76 c1
-16 -4 -24 -12 -22 -8 1 -11 -1 -8 -6 2 -4 0 -14 -5 -22 -7 -10 -8 6 -5 50 3
36 5 67 6 70 3 12 23 -47 24 -70z m2974 -1537 c-15 -15 -31 -23 -35 -19 -9 8
32 46 50 46 7 0 -1 -12 -15 -27z m-438 -253 c0 -5 -7 -10 -17 -10 -9 0 -13 -3
-10 -6 3 -4 -10 -21 -31 -40 -20 -18 -38 -31 -40 -29 -9 9 50 84 70 88 13 2
24 5 26 6 1 0 2 -3 2 -9z"/>
<path d="M943 3783 c-3 -10 -8 -22 -11 -27 -3 -5 0 -6 5 -3 11 7 25 47 17 47
-3 0 -7 -8 -11 -17z"/>
<path d="M4185 3160 c-11 -4 -23 -6 -27 -3 -5 2 -8 -1 -8 -7 0 -11 47 -6 59 6
9 9 -5 11 -24 4z"/>
<path d="M609 2763 c-13 -16 -12 -17 4 -4 9 7 17 15 17 17 0 8 -8 3 -21 -13z"/>
<path d="M642 2624 c-7 -8 -8 -14 -3 -14 10 0 25 19 20 25 -2 1 -10 -3 -17
-11z"/>
<path d="M865 2630 c3 -5 8 -10 11 -10 2 0 4 5 4 10 0 6 -5 10 -11 10 -5 0 -7
-4 -4 -10z"/>
<path d="M3855 2400 c9 -16 18 -30 21 -30 2 0 -2 14 -11 30 -9 17 -18 30 -21
30 -2 0 2 -13 11 -30z"/>
<path d="M3796 2223 c4 -21 7 -44 7 -50 0 -7 5 -13 10 -13 5 0 6 7 3 16 -3 9
-6 31 -6 50 0 19 -5 34 -10 34 -7 0 -8 -14 -4 -37z"/>
<path d="M3813 2121 c8 -37 40 -111 48 -111 4 0 5 9 2 20 -3 11 -9 20 -12 20
-4 0 -8 6 -9 13 0 6 -3 23 -7 37 -4 14 -7 31 -7 38 -1 6 -6 12 -11 12 -5 0 -7
-13 -4 -29z"/>
<path d="M1130 2085 c0 -3 9 -16 21 -28 l21 -22 -13 28 c-11 23 -29 37 -29 22z"/>
</g>
</svg>
